<?xml version="1.0" encoding="UTF-8"?>
<svg width="268px" height="327px" viewBox="0 0 268 327" version="1.1" xmlns="http://www.w3.org/2000/svg" xmlns:xlink="http://www.w3.org/1999/xlink">
    <!-- Generator: Sketch 59 (86127) - https://sketch.com -->
    <title>Group 3</title>
    <desc>Created with Sketch.</desc>
    <g id="Page-1" stroke="none" stroke-width="1" fill="none" fill-rule="evenodd">
        <g id="ihu-logo" transform="translate(-1020.000000, -1891.000000)">
            <g id="Group-3" transform="translate(1020.037500, 1891.585600)">
                <path d="M133.613,326.066 C59.938,326.066 1.13686838e-13,266.128 1.13686838e-13,192.453 L1.13686838e-13,14.144 L85.192,14.144 C99.668,4.886 116.382,1.42108547e-13 133.612,1.42108547e-13 C150.843,1.42108547e-13 167.557,4.886 182.032,14.144 L267.226,14.144 L267.226,192.453 C267.226,266.128 207.288,326.066 133.613,326.066" id="Fill-377" fill="#FFFFFE"></path>
                <path d="M133.612,102.0284 C138.286,84.6694 148.53,69.5964 162.307,58.8384 C156.844,48.5804 146.047,41.5934 133.613,41.5934 C121.179,41.5934 110.382,48.5804 104.919,58.8394 C118.695,69.5974 128.939,84.6704 133.612,102.0284" id="Fill-378" fill="#A61F35"></path>
                <path d="M140.1335,130.065 L140.1335,132.331 L127.0935,132.331 L127.0935,130.065 C127.0935,90.997 96.1725,59.156 57.4695,57.667 L57.4695,192.448 C57.4695,232.304 88.0925,265.002 127.0935,268.311 L127.0935,201.833 L140.1315,201.833 L140.1315,268.311 C179.1325,265.003 209.7575,232.304 209.7575,192.448 L209.7575,57.667 C171.0545,59.156 140.1335,90.997 140.1335,130.065" id="Fill-379" fill="#A61F35"></path>
                <path d="M258.9158,192.4185 L258.9158,36.7445 L258.9158,22.4545 L179.5388,22.4545 C166.2428,13.4015 150.3348,8.3105 133.6118,8.3105 C116.8908,8.3105 100.9818,13.4015 87.6858,22.4545 L8.3108,22.4545 L8.3108,36.7445 L8.3108,192.4185 L8.3108,192.4525 C8.3108,261.6555 64.4098,317.7555 133.6128,317.7555 C202.8148,317.7555 258.9158,261.6555 258.9158,192.4525 C258.9158,192.4405 258.9158,192.4305 258.9158,192.4185 M133.6128,321.9105 C62.2288,321.9105 4.1548,263.8365 4.1548,192.4525 L4.1548,18.2995 L86.4228,18.2995 C100.4648,9.0415 116.7528,4.1545 133.6118,4.1545 C150.4718,4.1545 166.7588,9.0405 180.8018,18.2995 L263.0708,18.2995 L263.0708,192.4525 C263.0708,263.8365 204.9968,321.9105 133.6128,321.9105" id="Fill-380" fill="#A61F35"></path>
                <path d="M36.0866,59.8926 C41.4796,59.8926 42.4726,59.8926 43.6076,59.8216 C44.8146,59.7506 45.4166,59.3956 45.5946,58.6156 C45.7006,58.2256 45.7356,57.7636 45.7356,57.3376 C45.7356,56.9836 45.8076,56.7706 46.0906,56.7706 C46.3036,56.7706 46.3746,57.0536 46.3746,57.6216 C46.3746,58.9696 46.2686,61.2046 46.2686,62.2336 C46.2686,63.1206 46.3746,65.2136 46.3746,66.5616 C46.3746,67.0236 46.3036,67.3076 46.0906,67.3076 C45.8076,67.3076 45.7356,67.0946 45.7356,66.7396 C45.7356,66.3846 45.7006,66.1006 45.6296,65.6746 C45.4526,64.7176 44.8496,64.4336 43.6076,64.3626 C42.4726,64.2916 41.4796,64.2916 36.0866,64.2916 L29.8426,64.2916 C26.4006,64.2916 23.5986,64.2916 22.0726,64.4336 C21.1146,64.5396 20.4776,64.7886 20.3346,65.8526 C20.2646,66.3486 20.1926,67.1296 20.1926,67.6616 C20.1926,68.0516 20.0866,68.2296 19.9086,68.2296 C19.6606,68.2296 19.5546,67.9466 19.5546,67.5556 C19.5546,65.2136 19.6606,62.9796 19.6606,62.0206 C19.6606,61.2046 19.5546,58.9696 19.5546,57.5506 C19.5546,57.0896 19.6606,56.8406 19.9086,56.8406 C20.0866,56.8406 20.1926,56.9836 20.1926,57.4096 C20.1926,57.9416 20.2646,58.3666 20.3346,58.6866 C20.4776,59.3956 21.0796,59.6086 22.1086,59.7146 C23.5986,59.8926 26.4006,59.8926 29.8426,59.8926 L36.0866,59.8926 Z" id="Fill-381" fill="#041F5E"></path>
                <path d="M35.4831,83.3809 C35.2001,83.3809 35.1291,83.4869 35.0931,83.6299 C35.0221,83.9479 34.9871,84.4819 34.9871,85.2969 C34.9871,86.4679 35.1291,87.2479 35.6611,87.8509 C36.4061,88.7739 37.6831,89.3059 39.4211,89.3059 C41.7981,89.3059 44.9211,87.9219 44.9211,84.8709 C44.9211,84.3739 44.9211,84.0559 44.8491,83.6999 C44.7781,83.4519 44.6361,83.3809 44.2461,83.3809 L35.4831,83.3809 Z M32.6451,88.0639 C33.1771,87.3189 33.4251,86.5029 33.4971,85.1199 C33.5321,84.4819 33.5321,84.1259 33.5321,83.5939 C33.5321,83.4519 33.4621,83.3809 33.2841,83.3809 L24.8761,83.3809 C22.5351,83.3809 21.9311,83.4869 21.4701,84.6219 C21.0801,85.5809 21.0451,86.3969 21.0451,87.2119 C21.0451,88.8099 21.8961,91.5049 25.5861,91.5049 C27.7851,91.5049 30.7651,90.7609 32.6451,88.0639 L32.6451,88.0639 Z M36.0871,79.1239 C41.4791,79.1239 42.4721,79.1239 43.6071,79.0529 C44.8141,78.9819 45.3811,78.6979 45.6291,77.5269 C45.7011,77.2429 45.7361,76.6409 45.7361,76.1439 C45.7361,75.7529 45.8071,75.5399 46.0551,75.5399 C46.3031,75.5399 46.3751,75.7889 46.3751,76.3209 C46.3751,78.2019 46.2681,80.4369 46.2681,81.1459 C46.2681,82.8839 46.3751,84.2689 46.3751,85.4739 C46.3751,91.8959 42.9331,93.0299 41.0531,93.0299 C38.1441,93.0299 36.4061,91.3629 34.8441,89.4119 C33.8511,92.3209 31.3331,95.8679 27.1821,95.8679 C23.3851,95.8679 19.4481,92.9249 19.4481,86.3969 C19.4481,85.9709 19.5191,84.9429 19.5541,83.9129 C19.6261,82.8489 19.6611,81.7839 19.6611,81.2529 C19.6611,80.8619 19.6611,80.0809 19.6261,79.2309 C19.6261,78.4139 19.5541,77.4909 19.5541,76.7819 C19.5541,76.3209 19.6611,76.0729 19.9091,76.0729 C20.0871,76.0729 20.1931,76.2149 20.1931,76.6409 C20.1931,77.1729 20.2641,77.5989 20.3351,77.9169 C20.4771,78.6269 21.2571,78.8049 22.2861,78.9459 C23.7761,79.1239 26.5791,79.1239 29.8421,79.1239 L36.0871,79.1239 Z" id="Fill-382" fill="#041F5E"></path>
                <path d="M24.3796,108.6763 C21.6116,108.7483 20.6906,109.2093 20.4416,109.9183 C20.2286,110.5223 20.1926,111.1963 20.1926,111.7633 C20.1926,112.1543 20.1216,112.3663 19.9086,112.3663 C19.6256,112.3663 19.5546,112.0473 19.5546,111.5513 C19.5546,109.2443 19.6606,107.8253 19.6606,107.1513 C19.6606,106.8323 19.5546,105.1643 19.5546,103.3203 C19.5546,102.8593 19.5896,102.5393 19.9086,102.5393 C20.1216,102.5393 20.1926,102.7523 20.1926,103.1073 C20.1926,103.5693 20.2286,104.2073 20.3706,104.7033 C20.6536,105.6253 21.6836,105.7683 24.7696,105.8033 L45.6656,106.1223 C46.3746,106.1223 46.8716,106.2293 46.8716,106.5843 C46.8716,106.9743 46.4096,107.2933 45.7726,107.8973 C45.3106,108.3223 39.6346,113.7153 34.4896,118.8943 C32.0776,121.3073 26.9696,126.0963 26.4006,126.6993 L26.4006,126.8763 L42.3306,126.5223 C44.4946,126.4873 45.1686,126.1663 45.5236,125.3153 C45.7356,124.7833 45.7356,123.9323 45.7356,123.4353 C45.7356,123.0093 45.8426,122.8673 46.0556,122.8673 C46.3396,122.8673 46.3746,123.2583 46.3746,123.7893 C46.3746,125.6353 46.2686,127.3383 46.2686,128.0823 C46.2686,128.4733 46.3746,129.8213 46.3746,131.5593 C46.3746,132.0203 46.3396,132.3753 46.0556,132.3753 C45.8426,132.3753 45.7356,132.1623 45.7356,131.7373 C45.7356,131.3813 45.7356,131.0983 45.6296,130.6723 C45.3466,129.6793 44.6016,129.3953 42.6136,129.3603 L20.2286,128.9693 C19.4476,128.9693 19.1286,128.8273 19.1286,128.5083 C19.1286,128.1173 19.5196,127.6923 19.9086,127.3023 C22.0376,125.0673 26.6856,120.5263 30.3396,116.8363 C34.1706,112.9693 38.4986,109.0313 39.1726,108.3933 L39.1726,108.2863 L24.3796,108.6763 Z" id="Fill-383" fill="#041F5E"></path>
                <path d="M35.0935,175.5162 C35.0935,175.6232 35.1635,175.7292 35.3415,175.7292 L36.0865,175.7292 C41.4795,175.7292 42.4725,175.7292 43.6075,175.6592 C44.8145,175.5882 45.3815,175.3032 45.6295,174.1332 C45.7005,173.8492 45.7365,173.2462 45.7365,172.7492 C45.7365,172.3602 45.8075,172.1472 46.0555,172.1472 C46.3035,172.1472 46.3745,172.3952 46.3745,172.8912 C46.3745,174.8072 46.2685,177.0422 46.2685,178.0002 C46.2685,178.8522 46.3745,181.0862 46.3745,182.4702 C46.3745,182.9672 46.3035,183.2152 46.0555,183.2152 C45.8075,183.2152 45.7365,183.0022 45.7365,182.5772 C45.7365,182.2932 45.7005,181.9732 45.6295,181.5472 C45.4525,180.5902 44.8495,180.3062 43.6075,180.2352 C42.4725,180.1642 41.4795,180.1642 36.0865,180.1642 L29.8425,180.1642 C26.5785,180.1642 23.7765,180.1642 22.2505,180.3422 C21.2575,180.4482 20.4775,180.6612 20.3345,181.7252 C20.2645,182.2212 20.1935,183.0022 20.1935,183.5352 C20.1935,183.9242 20.0865,184.1022 19.9085,184.1022 C19.6605,184.1022 19.5545,183.8192 19.5545,183.3932 C19.5545,181.0862 19.6605,178.8522 19.6605,177.8582 C19.6605,177.0422 19.5545,174.8072 19.5545,173.4242 C19.5545,172.9262 19.6605,172.6782 19.9085,172.6782 C20.0865,172.6782 20.1935,172.8212 20.1935,173.2462 C20.1935,173.7782 20.2645,174.2042 20.3345,174.5242 C20.4775,175.2332 21.2575,175.4112 22.2855,175.5522 C23.7765,175.7292 26.5785,175.7292 29.8425,175.7292 L32.9645,175.7292 C33.1065,175.7292 33.1775,175.6232 33.1775,175.5162 L33.1775,161.9652 C33.1775,161.8582 33.1425,161.7522 32.9645,161.7522 L29.8425,161.7522 C26.5785,161.7522 23.7765,161.7522 22.2505,161.9292 C21.2575,162.0362 20.4775,162.2482 20.3345,163.3132 C20.2645,163.8092 20.1935,164.5902 20.1935,165.1212 C20.1935,165.5122 20.0865,165.6902 19.9085,165.6902 C19.6605,165.6902 19.5545,165.4062 19.5545,164.9802 C19.5545,162.6742 19.6605,160.4392 19.6605,159.4462 C19.6605,158.6292 19.5545,156.3952 19.5545,154.9752 C19.5545,154.5142 19.6605,154.2662 19.9085,154.2662 C20.0865,154.2662 20.1935,154.4092 20.1935,154.8342 C20.1935,155.3662 20.2645,155.7912 20.3345,156.1112 C20.4775,156.8212 21.2575,156.9982 22.2855,157.1392 C23.7765,157.3172 26.5785,157.3172 29.8425,157.3172 L36.0865,157.3172 C41.4795,157.3172 42.4725,157.3172 43.6075,157.2462 C44.8145,157.1752 45.3815,156.8912 45.6295,155.7212 C45.7005,155.4372 45.7365,154.8342 45.7365,154.3372 C45.7365,153.9472 45.8075,153.7342 46.0555,153.7342 C46.3035,153.7342 46.3745,153.9832 46.3745,154.4792 C46.3745,156.3952 46.2685,158.6292 46.2685,159.5882 C46.2685,160.4392 46.3745,162.6742 46.3745,164.0572 C46.3745,164.5542 46.3035,164.8032 46.0555,164.8032 C45.8075,164.8032 45.7365,164.5902 45.7365,164.1642 C45.7365,163.8802 45.7005,163.5612 45.6295,163.1352 C45.4525,162.1782 44.8495,161.8932 43.6075,161.8232 C42.4725,161.7522 41.4795,161.7522 36.0865,161.7522 L35.3415,161.7522 C35.1635,161.7522 35.0935,161.8582 35.0935,161.9652 L35.0935,175.5162 Z" id="Fill-384" fill="#041F5E"></path>
                <path d="M30.5779,203.9673 C30.5859,204.1443 30.6939,204.1743 30.7989,204.1333 L39.3649,200.5363 C39.5049,200.4943 39.6809,200.4503 39.6759,200.3443 C39.6709,200.2383 39.4899,200.1763 39.3469,200.1463 L30.5139,197.2933 C30.3699,197.2653 30.2659,197.3053 30.2709,197.4473 L30.5779,203.9673 Z M28.4669,196.8213 C28.4589,196.6453 28.3849,196.5763 28.1689,196.5163 L23.2239,194.8303 C22.3219,194.5183 21.4639,194.3813 21.0389,194.4013 C20.3999,194.4313 19.9549,194.7723 20.0069,195.8693 L20.0309,196.4013 C20.0519,196.8263 19.9849,196.9363 19.7729,196.9463 C19.4899,196.9593 19.4089,196.7503 19.3899,196.3613 C19.3379,195.2273 19.3719,193.6973 19.3199,192.6003 C19.3029,192.2093 19.1039,190.2663 19.0179,188.4243 C18.9959,187.9633 19.0569,187.7463 19.3409,187.7343 C19.5539,187.7243 19.6309,187.8623 19.6439,188.1463 C19.6589,188.4653 19.7179,188.9593 19.7659,189.2403 C20.0559,190.8613 21.2919,191.4773 23.0969,192.1033 L45.4809,199.9653 C46.5289,200.3423 46.9289,200.5353 46.9449,200.8903 C46.9599,201.2093 46.6509,201.4363 45.8519,201.8283 C43.9439,202.7713 30.0379,209.1063 24.7589,211.6253 C21.6339,213.1213 21.1849,214.1723 21.0429,214.9243 C20.9619,215.4613 20.9509,215.9943 20.9719,216.4203 C20.9839,216.7033 20.9579,216.8813 20.7099,216.8933 C20.4259,216.9063 20.3409,216.5913 20.2779,215.2803 C20.2189,214.0043 20.0979,211.4183 20.0349,208.5803 C20.0409,207.9423 20.0199,207.5163 20.2679,207.5043 C20.4809,207.4943 20.5579,207.6333 20.6109,207.9853 C20.6929,208.2303 21.0239,208.4633 21.4399,208.2663 L28.6059,205.0883 C28.7799,205.0103 28.8469,204.9013 28.8379,204.7233 L28.4669,196.8213 Z" id="Fill-385" fill="#041F5E"></path>
                <path d="M35.2907,229.6353 C31.0097,231.1493 28.7017,231.9643 28.3487,232.8793 C28.0477,233.6253 28.1207,234.5783 29.0437,237.1873 C29.6697,238.9593 30.1647,240.2523 31.3627,240.7693 C31.9397,241.0163 33.0187,241.0863 33.6777,240.9293 C33.9907,240.8563 34.2147,240.8523 34.3097,241.1193 C34.3927,241.3543 34.2367,241.4463 33.8357,241.5883 C33.4677,241.7183 30.8767,242.3713 29.8117,242.4463 C29.0047,242.5063 28.7787,242.3983 28.1637,240.6583 C27.3117,238.2503 26.7647,236.4873 26.2657,234.9713 C25.8007,233.4423 25.4077,232.2263 24.9227,230.8543 C24.7927,230.4873 24.5327,229.7503 24.2157,228.9593 C23.9437,228.1903 23.5687,227.3443 23.3327,226.6763 C23.1797,226.2403 23.1967,225.9713 23.4307,225.8883 C23.5987,225.8283 23.7457,225.9283 23.8877,226.3283 C24.0647,226.8303 24.2727,227.2083 24.4467,227.4863 C24.8167,228.1083 25.6117,228.0143 26.6297,227.8053 C28.0937,227.4763 30.7357,226.5413 33.8127,225.4533 L39.6997,223.3723 C44.7837,221.5743 45.7207,221.2433 46.7667,220.7983 C47.8807,220.3293 48.3207,219.8723 48.1647,218.6863 C48.1377,218.3953 48.0287,217.9823 47.8747,217.5473 C47.7447,217.1793 47.7407,216.9543 47.9757,216.8713 C48.2087,216.7893 48.3587,216.9993 48.5357,217.5013 C49.0917,219.0723 49.7357,221.2153 50.0557,222.1193 C50.3397,222.9223 51.3037,225.3283 51.7647,226.6323 C51.9307,227.1003 51.9457,227.3583 51.7117,227.4423 C51.4777,227.5243 51.3397,227.3473 51.1977,226.9463 C51.0677,226.5773 50.8457,226.0543 50.6367,225.6763 C50.1497,224.8323 49.4867,224.7663 48.2927,225.1143 C47.1977,225.4243 46.2617,225.7563 41.1777,227.5533 L35.2907,229.6353 Z" id="Fill-386" fill="#041F5E"></path>
                <path d="M49.4538,252.6666 C46.5258,255.0256 44.4218,256.7666 43.9198,257.2166 C43.2518,257.7996 42.1908,258.7446 42.0648,259.2116 C41.8298,259.9926 42.1168,261.5366 43.8748,263.7196 C46.1438,266.5356 48.2098,267.9696 50.9798,268.4696 C53.9238,269.0136 56.8818,267.5416 59.7258,265.2496 C63.2328,262.4246 64.3188,259.1366 64.4948,257.0356 C64.8788,252.5376 62.6738,249.1216 60.9378,246.9676 C60.4938,246.4156 59.5878,245.4606 59.2998,245.3286 C58.9878,245.1686 58.7838,245.1976 58.4798,245.4416 C57.5178,246.1706 55.1158,248.1056 52.9338,249.8636 L49.4538,252.6666 Z M49.7108,246.7686 C53.9088,243.3856 54.6828,242.7636 55.5208,241.9956 C56.4158,241.1846 56.6808,240.6076 56.1398,239.5396 C56.0158,239.2746 55.6658,238.7826 55.3538,238.3966 C55.1098,238.0926 55.0318,237.8826 55.2248,237.7276 C55.4178,237.5706 55.6288,237.7196 55.9628,238.1346 C57.1418,239.5986 58.4608,241.4056 59.0838,242.1796 C59.7728,243.0356 61.2578,244.7096 62.5928,246.3636 C65.3738,249.8166 69.0888,254.4286 68.3648,259.9756 C68.0418,262.5136 66.7948,265.6576 63.5088,268.3056 C60.0278,271.1076 56.1978,271.7796 53.3778,271.5026 C51.0568,271.2766 46.7818,269.9846 42.6658,264.8756 C41.8648,263.8806 41.0358,262.6826 40.2728,261.5646 C39.5108,260.4486 38.8148,259.4156 38.2588,258.7256 C38.0138,258.4216 37.5238,257.8126 36.9628,257.1736 C36.4508,256.5376 35.8168,255.8636 35.3728,255.3126 C35.0838,254.9526 35.0108,254.6926 35.2038,254.5376 C35.3418,254.4266 35.5138,254.4696 35.7808,254.8016 C36.1138,255.2156 36.4358,255.5026 36.6918,255.7056 C37.2478,256.1696 37.9668,255.8186 38.8558,255.2836 C40.1278,254.4866 42.3088,252.7296 44.8498,250.6836 L49.7108,246.7686 Z" id="Fill-387" fill="#041F5E"></path>
                <path d="M74.1589,272.7994 C76.7789,268.0884 77.2629,267.2204 77.7519,266.1944 C78.2759,265.1064 78.3049,264.4724 77.4019,263.6864 C77.1889,263.4864 76.6799,263.1624 76.2459,262.9204 C75.9039,262.7314 75.7529,262.5664 75.8739,262.3494 C75.9949,262.1314 76.2459,262.1904 76.7109,262.4524 C78.3529,263.3664 80.2539,264.5454 81.1829,265.0634 C81.9279,265.4774 83.9309,266.4704 85.0479,267.0874 C85.5129,267.3464 85.6939,267.5284 85.5739,267.7454 C85.4529,267.9634 85.2319,267.9214 84.9229,267.7484 C84.5819,267.5594 84.3789,267.4874 83.9719,267.3424 C83.0499,267.0314 82.5089,267.4204 81.8429,268.4704 C81.2289,269.4274 80.7459,270.2954 78.1259,275.0064 L75.7119,279.3444 C73.2119,283.8384 73.0579,286.2294 73.8879,288.3134 C74.6429,290.2364 76.0009,291.1534 77.0549,291.7384 C78.4179,292.4974 80.3329,292.9944 82.2619,292.4454 C84.9149,291.6894 86.5589,288.9514 88.3359,285.7594 L90.4909,281.8854 C93.1109,277.1744 93.5949,276.3074 94.0839,275.2804 C94.6079,274.1934 94.6369,273.5594 93.7339,272.7734 C93.5209,272.5724 93.0119,272.2484 92.6709,272.0594 C92.3299,271.8694 92.1789,271.7034 92.2989,271.4874 C92.4199,271.2704 92.6709,271.3284 93.1039,271.5734 C94.6849,272.4534 96.5859,273.6324 96.6169,273.6504 C96.9889,273.8564 98.9929,274.8504 100.2019,275.5194 C100.6359,275.7604 100.8179,275.9444 100.6969,276.1604 C100.5769,276.3774 100.3559,276.3354 99.9839,276.1284 C99.6429,275.9394 99.4399,275.8664 99.0339,275.7214 C98.1109,275.4104 97.5699,275.7994 96.9039,276.8504 C96.2909,277.8074 95.8069,278.6744 93.1869,283.3854 L91.3419,286.7014 C89.4289,290.1414 87.0529,293.6094 83.2079,294.3914 C79.9559,295.0584 77.5349,294.1564 75.5199,293.0364 C73.8779,292.1224 70.9549,290.3744 69.8299,287.0704 C69.0429,284.7664 69.1409,281.8174 71.6409,277.3224 L74.1589,272.7994 Z" id="Fill-388" fill="#041F5E"></path>
                <path d="M107.2263,299.4644 C106.9623,302.2194 107.3083,303.1904 107.9833,303.5224 C108.5553,303.8064 109.2193,303.9224 109.7833,303.9904 C110.1703,304.0384 110.3723,304.1354 110.3473,304.3464 C110.3133,304.6274 109.9883,304.6584 109.4953,304.5994 C107.2063,304.3204 105.8113,304.0434 105.1423,303.9614 C104.8263,303.9234 103.1593,303.8274 101.3283,303.6044 C100.8703,303.5494 100.5573,303.4754 100.5963,303.1584 C100.6223,302.9464 100.8413,302.9024 101.1943,302.9454 C101.6513,303.0004 102.2893,303.0434 102.7993,302.9624 C103.7483,302.7914 104.0143,301.7874 104.4223,298.7304 L107.2643,278.0344 C107.3503,277.3304 107.5163,276.8504 107.8683,276.8934 C108.2553,276.9404 108.5163,277.4374 109.0383,278.1434 C109.4043,278.6524 114.0693,284.9364 118.5863,290.6664 C120.6893,293.3524 124.8243,299.0004 125.3533,299.6364 L125.5303,299.6574 L127.1023,283.8094 C127.3293,281.6564 127.0933,280.9494 126.2913,280.4944 C125.7893,280.2194 124.9453,280.1164 124.4523,280.0574 C124.0293,280.0054 123.9013,279.8824 123.9273,279.6714 C123.9613,279.3894 124.3533,279.4014 124.8803,279.4634 C126.7113,279.6864 128.3883,279.9974 129.1273,280.0884 C129.5153,280.1354 130.8653,280.1924 132.5903,280.4044 C133.0473,280.4604 133.3953,280.5384 133.3613,280.8204 C133.3353,281.0314 133.1113,281.1114 132.6893,281.0604 C132.3363,281.0174 132.0553,280.9834 131.6203,281.0374 C130.6003,281.1984 130.2283,281.9024 129.9533,283.8704 L126.8603,306.0354 C126.7663,306.8104 126.5863,307.1104 126.2703,307.0704 C125.8823,307.0244 125.5073,306.5854 125.1673,306.1514 C123.2063,303.7694 119.2623,298.6084 116.0433,294.5364 C112.6693,290.2684 109.2853,285.4964 108.7333,284.7504 L108.6273,284.7384 L107.2263,299.4644 Z" id="Fill-389" fill="#041F5E"></path>
                <path d="M156.6072,288.5982 C154.9602,283.4652 154.6572,282.5202 154.2432,281.4602 C153.8062,280.3342 153.3632,279.8802 152.1722,280.0012 C151.8812,280.0212 151.2962,280.1712 150.8232,280.3232 C150.4522,280.4422 150.2272,280.4402 150.1522,280.2032 C150.0762,279.9672 150.2912,279.8232 150.7972,279.6622 C152.5862,279.0882 154.7472,278.5082 155.7592,278.1832 C156.5702,277.9222 158.6652,277.1392 159.8802,276.7462 C160.3872,276.5842 160.6452,276.5762 160.7212,276.8122 C160.7962,277.0482 160.6162,277.1812 160.2782,277.2892 C159.9072,277.4092 159.7152,277.5072 159.3322,277.7052 C158.4742,278.1662 158.3882,278.8272 158.7002,280.0302 C158.9792,281.1332 159.2822,282.0782 160.9292,287.2112 L162.4462,291.9382 C164.0162,296.8342 165.6572,298.5802 167.7452,299.4012 C169.6652,300.1622 171.2612,299.7992 172.4102,299.4302 C173.8952,298.9532 175.5672,297.8962 176.4852,296.1122 C177.7462,293.6592 176.8732,290.5872 175.7562,287.1102 L174.4022,282.8882 C172.7552,277.7552 172.4522,276.8102 172.0382,275.7502 C171.6022,274.6242 171.1592,274.1702 169.9682,274.2922 C169.6762,274.3112 169.0912,274.4612 168.7202,274.5802 C168.3492,274.7002 168.1252,274.6982 168.0482,274.4612 C167.9732,274.2252 168.1872,274.0812 168.6602,273.9322 C170.3822,273.3792 172.5432,272.7982 172.5762,272.7872 C172.9812,272.6582 175.0762,271.8732 176.3932,271.4492 C176.8662,271.2972 177.1242,271.2892 177.2002,271.5262 C177.2762,271.7622 177.0942,271.8942 176.6892,272.0242 C176.3182,272.1432 176.1272,272.2432 175.7432,272.4402 C174.8852,272.9012 174.7992,273.5622 175.1112,274.7652 C175.3902,275.8682 175.6932,276.8132 177.3402,281.9462 L178.5002,285.5592 C179.7022,289.3072 180.6092,293.4102 178.5522,296.7522 C176.8162,299.5802 174.5032,300.7332 172.3082,301.4372 C170.5192,302.0112 167.2452,302.9502 164.0652,301.5122 C161.8442,300.5112 159.7592,298.4242 158.1882,293.5282 L156.6072,288.5982 Z" id="Fill-390" fill="#041F5E"></path>
                <path d="M198.8191,282.7671 C200.6541,284.8381 201.6001,285.2481 202.3031,284.9811 C202.9021,284.7561 203.4401,284.3501 203.8751,283.9851 C204.1731,283.7331 204.3811,283.6511 204.5191,283.8131 C204.7021,284.0311 204.5031,284.2901 204.1231,284.6101 C202.3581,286.0941 201.2041,286.9251 200.6881,287.3591 C200.4441,287.5651 199.2371,288.7191 197.8251,289.9061 C197.4721,290.2031 197.2051,290.3811 197.0001,290.1371 C196.8631,289.9731 196.9801,289.7821 197.2521,289.5541 C197.6041,289.2571 198.0701,288.8191 198.3591,288.3911 C198.8811,287.5801 198.3291,286.7021 196.3701,284.3171 L183.1691,268.1231 C182.7131,267.5801 182.4741,267.1311 182.7461,266.9041 C183.0441,266.6531 183.5851,266.8001 184.4581,266.9011 C185.0801,266.9791 192.8581,267.8531 200.1311,268.4561 C203.5301,268.7501 210.4811,269.5771 211.3081,269.6231 L211.4441,269.5091 L200.9231,257.5491 C199.5041,255.9161 198.8261,255.6061 197.9461,255.8821 C197.4011,256.0621 196.7501,256.6101 196.3701,256.9301 C196.0451,257.2041 195.8671,257.2131 195.7301,257.0501 C195.5481,256.8331 195.8231,256.5551 196.2301,256.2121 C197.6421,255.0261 199.0131,254.0111 199.5841,253.5321 C199.8821,253.2811 200.8451,252.3311 202.1751,251.2131 C202.5281,250.9161 202.8231,250.7151 203.0061,250.9321 C203.1421,251.0961 203.0481,251.3141 202.7221,251.5881 C202.4511,251.8171 202.2331,251.9981 201.9761,252.3541 C201.3991,253.2101 201.6611,253.9631 202.9121,255.5061 L217.0171,272.8861 C217.5191,273.4831 217.6171,273.8191 217.3721,274.0241 C217.0741,274.2761 216.4971,274.2501 215.9471,274.2041 C212.8671,274.0121 206.4021,273.3781 201.2281,272.9561 C195.8031,272.5121 190.0061,271.7351 189.0841,271.6291 L189.0021,271.6991 L198.8191,282.7671 Z" id="Fill-391" fill="#041F5E"></path>
                <path d="M215.7448,248.397 C211.1838,245.522 210.3448,244.992 209.3478,244.446 C208.2888,243.863 207.5898,243.841 207.0238,244.407 C206.7248,244.68 206.4498,245.051 206.2228,245.411 C206.0328,245.711 205.8598,245.853 205.6198,245.702 C205.4398,245.588 205.5308,245.31 205.8338,244.831 C206.5538,243.69 207.8348,241.857 208.3838,240.987 C208.8568,240.237 209.8838,238.411 210.6018,237.27 C210.8488,236.881 211.0588,236.678 211.2388,236.792 C211.4788,236.944 211.4258,237.161 211.2368,237.461 C211.0478,237.761 210.9268,238.02 210.7588,238.418 C210.3978,239.323 210.7568,239.884 211.7688,240.606 C212.6908,241.272 213.5308,241.801 218.0908,244.678 L223.3708,248.008 C226.2798,249.843 228.6498,251.338 230.0158,252.032 C230.8828,252.452 231.5558,252.583 232.2428,251.758 C232.5678,251.376 233.0438,250.754 233.3278,250.304 C233.5358,249.974 233.7208,249.881 233.8708,249.975 C234.0808,250.108 234.0188,250.405 233.8108,250.735 C232.5618,252.714 231.2798,254.547 230.7688,255.358 C230.3338,256.047 229.2318,257.995 228.4748,259.194 C228.2288,259.585 228.0068,259.738 227.7968,259.606 C227.6468,259.51 227.6328,259.335 227.8588,258.974 C228.1428,258.524 228.3098,258.126 228.4208,257.819 C228.6798,257.143 228.2828,256.641 227.4698,256.002 C226.3048,255.057 223.9338,253.563 221.0238,251.727 L215.7448,248.397 Z" id="Fill-392" fill="#041F5E"></path>
                <path d="M217.6208,232.0728 C215.5168,232.2828 214.9678,232.7448 214.2558,233.8628 C213.9648,234.3308 213.7988,234.8738 213.7158,235.1438 C213.6228,235.4498 213.4898,235.5198 213.2858,235.4578 C213.0148,235.3758 213.0948,234.9918 213.2498,234.4828 C213.7998,232.6848 214.4908,230.7818 214.8538,229.5938 C215.1128,228.7468 215.5088,227.0868 216.0268,225.3918 C216.1508,224.9848 216.3328,224.6338 216.5698,224.7058 C216.8078,224.7778 216.8128,225.0028 216.7208,225.3068 C216.5548,225.8498 216.4338,226.3698 216.5538,226.7028 C216.6508,226.9928 216.8568,227.1668 217.1618,227.2608 C217.6028,227.3938 218.6458,227.3798 220.0128,227.2778 L237.1938,226.1468 L237.2358,226.0108 C233.9498,223.4128 224.3748,215.6668 222.3848,214.1688 C221.9948,213.8648 221.5278,213.5738 221.2228,213.4808 C220.9508,213.3968 220.6388,213.4498 220.4428,213.7248 C220.1838,214.0908 219.9938,214.5888 219.8588,215.0298 C219.7668,215.3348 219.6488,215.5958 219.4118,215.5238 C219.1408,215.4398 219.1658,215.1138 219.3628,214.4668 C219.8808,212.7698 220.4178,211.3768 220.5528,210.9348 C220.7278,210.3578 221.1138,208.7328 221.4248,207.7188 C221.5588,207.2788 221.7098,207.0278 221.9478,207.0998 C222.1848,207.1738 222.1898,207.3968 222.0868,207.7368 C221.9828,208.0758 221.7668,208.7878 221.9858,209.5228 C222.1568,210.0568 222.5778,210.7428 224.4698,212.3208 C227.2538,214.6178 228.8058,216.0938 232.4188,219.1998 C236.7078,222.8838 239.9178,225.6058 241.3868,226.8708 C243.0848,228.3538 243.5648,228.7228 243.4198,229.1978 C243.2848,229.6388 242.7478,229.6978 240.9568,229.8548 L217.6208,232.0728 Z" id="Fill-393" fill="#041F5E"></path>
                <path d="M231.0954,202.1744 C225.7054,202.1214 224.7124,202.1124 223.5764,202.1714 C222.3704,202.2304 221.8004,202.5084 221.5404,203.6764 C221.4674,203.9594 221.4254,204.5614 221.4204,205.0584 C221.4164,205.4474 221.3434,205.6604 221.0954,205.657431 C220.8474,205.6544 220.7794,205.4064 220.7834,204.8744 C220.7934,203.9164 220.8394,202.8894 220.8484,202.0024 C220.8924,201.0804 220.9364,200.2664 220.9414,199.7694 C220.9514,198.6344 221.0224,191.5764 220.9924,190.9034 C220.9294,190.2294 220.8644,189.6604 220.7954,189.3764 C220.7624,189.1984 220.6574,188.9854 220.659372,188.8074 C220.6604,188.6304 220.8034,188.5964 220.9814,188.5984 C221.2294,188.6004 221.6534,188.7814 223.2834,188.9044 C223.6374,188.9444 225.1974,189.0294 225.6214,189.1054 C225.7984,189.1424 226.0104,189.2154 226.0084,189.4634 C226.0054,189.7114 225.8274,189.7804 225.5084,189.7784 C225.2604,189.7754 224.6574,189.8054 224.2304,189.9774 C223.5884,190.2194 223.1594,190.5704 222.9294,192.3404 C222.8534,192.9444 222.7444,196.6664 222.7384,197.3754 C222.7364,197.5524 222.8414,197.6244 223.0904,197.6274 L232.0624,197.7154 C232.3104,197.7184 232.4514,197.6844 232.4544,197.4714 C232.4624,196.6914 232.5024,192.6134 232.4394,191.7974 C232.3764,190.9454 232.2764,190.4124 231.9244,190.0894 C231.6434,189.8384 231.4674,189.6954 231.4694,189.5184 C231.4704,189.3754 231.5424,189.2704 231.7554,189.2724 C231.9684,189.2744 232.5334,189.4214 234.3414,189.5804 C235.0504,189.6234 236.4674,189.7444 236.7154,189.7464 C236.9994,189.7494 237.3894,189.7534 237.3864,190.0724 C237.3834,190.3204 237.2414,190.3904 237.0644,190.3894 C236.7084,190.4204 236.2474,190.4164 235.7854,190.5184 C235.0744,190.6884 234.5374,191.1794 234.3834,192.4894 C234.3054,193.1624 234.2354,196.6734 234.2274,197.5244 C234.2254,197.7014 234.3664,197.7384 234.5794,197.7404 L237.3814,197.7684 C238.5864,197.7794 241.8494,197.8484 242.8774,197.8224 C245.3244,197.7764 245.8634,197.2134 245.8984,193.5964 C245.9084,192.6744 245.9224,191.1864 245.5054,190.2594 C245.0894,189.3324 244.3494,188.9004 242.8974,188.6374 C242.5084,188.5634 242.3664,188.4904 242.3694,188.2424 C242.3724,187.9584 242.6564,187.9614 243.0104,187.9654 C243.8254,187.9734 246.2354,188.2794 246.9424,188.4654 C247.8624,188.7224 247.8594,189.0414 247.8454,190.3894 C247.8194,193.0484 247.7294,194.9984 247.6784,196.5224 C247.5924,198.0474 247.5454,199.1454 247.5354,200.2094 C247.5324,200.6004 247.5244,201.3794 247.5504,202.2314 C247.5424,203.0474 247.6044,203.9694 247.5974,204.6784 C247.5924,205.1394 247.4844,205.3874 247.2364,205.3844 C247.0584,205.3834 246.9534,205.2394 246.9574,204.8144 C246.9624,204.2814 246.8964,203.8564 246.8284,203.5354 C246.6944,202.8254 245.9154,202.6414 244.8884,202.4884 C243.4014,202.2964 240.5994,202.2684 237.3364,202.2364 L231.0954,202.1744 Z" id="Fill-394" fill="#041F5E"></path>
                <path d="M233.9421,172.3423 C234.3331,172.3423 234.4741,172.2723 234.5811,172.0233 C234.8291,171.2783 234.9351,170.2133 234.9351,169.3263 C234.9351,167.9073 234.7941,167.4463 234.3331,166.8083 C233.5511,165.7433 231.9201,164.7153 229.0101,164.7153 C223.9731,164.7153 222.5181,168.0493 222.5181,170.1433 C222.5181,171.0303 222.5541,171.6683 222.6611,172.0233 C222.7311,172.2723 222.8741,172.3423 223.1571,172.3423 L233.9421,172.3423 Z M231.1391,176.5283 C225.7471,176.5283 224.7541,176.5283 223.6191,176.6003 C222.4121,176.6703 221.8441,176.9533 221.5961,178.1253 C221.5251,178.4083 221.4901,179.0123 221.4901,179.5083 C221.4901,179.8993 221.4191,180.1123 221.1711,180.1123 C220.9221,180.1123 220.8511,179.8633 220.8511,179.3303 C220.8511,177.4503 220.9581,175.2153 220.9581,174.4713 C220.9581,173.2643 220.8511,170.5693 220.8511,169.4693 C220.8511,167.2333 221.0641,164.8563 222.3771,162.9413 C223.0501,161.9473 224.8601,160.5283 227.2371,160.5283 C229.8621,160.5283 232.2751,161.6283 235.1831,165.2113 C239.1571,162.0543 242.3141,159.6063 244.5141,157.5133 C246.5721,155.5263 246.8201,154.0713 246.9261,153.5393 C246.9981,153.1493 247.0331,152.8303 247.0331,152.5463 C247.0331,152.2623 247.1391,152.1203 247.3171,152.1203 C247.6001,152.1203 247.6711,152.3683 247.6711,152.7943 L247.6711,156.1643 C247.6711,158.1513 247.4941,159.0383 246.9981,159.9613 C246.1811,161.4873 244.5141,162.8343 241.7831,164.8213 C239.8311,166.2403 237.4191,167.8713 236.8861,168.3333 C236.6731,168.5103 236.6381,168.7233 236.6381,168.9723 L236.5671,172.0593 C236.5671,172.2363 236.6381,172.3423 236.8511,172.3423 L237.3481,172.3423 C240.6471,172.3423 243.4501,172.3423 244.9401,172.1643 C245.9681,172.0593 246.7491,171.8463 246.8911,170.7813 C246.9621,170.2483 247.0331,169.4693 247.0331,169.0433 C247.0331,168.7593 247.1391,168.6173 247.3171,168.6173 C247.5651,168.6173 247.6711,168.8653 247.6711,169.3263 C247.6711,171.3843 247.5651,174.0103 247.5651,174.5413 C247.5651,175.2153 247.6711,177.4503 247.6711,178.8693 C247.6711,179.3303 247.5651,179.5793 247.3171,179.5793 C247.1391,179.5793 247.0331,179.4383 247.0331,179.0123 C247.0331,178.4793 246.9621,178.0543 246.8911,177.7353 C246.7491,177.0263 245.9681,176.8483 244.9401,176.7053 C243.4501,176.5283 240.6471,176.5283 237.3831,176.5283 L231.1391,176.5283 Z" id="Fill-395" fill="#041F5E"></path>
                <path d="M247.2458,149.0572 C246.9978,149.6242 246.8198,149.7312 246.0398,149.7312 C244.0888,149.7312 241.9598,149.5882 241.3918,149.5532 C240.8598,149.5182 240.4698,149.4112 240.4698,149.1272 C240.4698,148.8092 240.7888,148.7732 241.0728,148.7732 C241.5338,148.7732 242.2788,148.6312 242.8828,148.4532 C245.5078,147.6732 246.4658,145.5802 246.4658,143.3802 C246.4658,140.1882 244.3018,138.6272 242.4208,138.6272 C240.6828,138.6272 239.0508,139.1592 236.7448,142.1042 L235.4678,143.7352 C232.4168,147.6372 229.9338,148.9862 227.0588,148.9862 C223.1568,148.9862 220.3538,145.7222 220.3538,140.7912 C220.3538,138.4852 220.7098,136.9942 220.9578,136.0732 C221.0288,135.7522 221.1358,135.5762 221.3838,135.5762 C221.8448,135.5762 222.8738,135.7172 225.6408,135.7172 C226.4208,135.7172 226.7048,135.8252 226.7048,136.1082 C226.7048,136.3562 226.4918,136.4622 226.0658,136.4622 C225.7468,136.4622 224.6468,136.6402 223.7248,137.3852 C223.0508,137.9162 221.9858,138.9462 221.9858,141.2522 C221.9858,143.8772 223.5128,145.4732 225.6408,145.4732 C227.2718,145.4732 228.5148,144.6582 230.7488,141.7132 L231.4938,140.7192 C234.7228,136.4272 237.1708,134.9022 240.5408,134.9022 C242.5988,134.9022 245.0468,135.6822 246.7138,138.2372 C247.8498,140.0102 248.1688,141.9962 248.1688,143.8772 C248.1688,145.9352 247.9198,147.5322 247.2458,149.0572" id="Fill-396" fill="#041F5E"></path>
                <path d="M231.1394,123.2642 C225.7464,123.2642 224.7534,123.2642 223.6184,123.3362 C222.4114,123.4072 221.8094,123.7622 221.6314,124.5412 C221.5254,124.9322 221.4904,125.3932 221.4904,125.8192 C221.4904,126.1742 221.4184,126.3872 221.1354,126.3872 C220.9224,126.3872 220.8514,126.1032 220.8514,125.5352 C220.8514,124.1872 220.9574,121.9522 220.9574,120.9232 C220.9574,120.0362 220.8514,117.9442 220.8514,116.5952 C220.8514,116.1332 220.9224,115.8502 221.1354,115.8502 C221.4184,115.8502 221.4904,116.0632 221.4904,116.4182 C221.4904,116.7722 221.5254,117.0572 221.5964,117.4822 C221.7734,118.4402 222.3764,118.7232 223.6184,118.7952 C224.7534,118.8662 225.7464,118.8662 231.1394,118.8662 L237.3834,118.8662 C240.8254,118.8662 243.6274,118.8662 245.1534,118.7232 C246.1114,118.6182 246.7484,118.3692 246.8914,117.3052 C246.9614,116.8082 247.0334,116.0282 247.0334,115.4952 C247.0334,115.1052 247.1394,114.9282 247.3174,114.9282 C247.5654,114.9282 247.6714,115.2112 247.6714,115.6022 C247.6714,117.9442 247.5654,120.1782 247.5654,121.1362 C247.5654,121.9522 247.6714,124.1872 247.6714,125.6062 C247.6714,126.0672 247.5654,126.3162 247.3174,126.3162 C247.1394,126.3162 247.0334,126.1742 247.0334,125.7482 C247.0334,125.2152 246.9614,124.7902 246.8914,124.4712 C246.7484,123.7622 246.1464,123.5492 245.1174,123.4422 C243.6274,123.2642 240.8254,123.2642 237.3834,123.2642 L231.1394,123.2642 Z" id="Fill-397" fill="#041F5E"></path>
                <path d="M222.8376,99.3018 L222.9806,104.5888 C223.0506,106.6448 223.2286,107.4968 224.0086,108.0298 C224.5406,108.3838 224.9666,108.5608 225.2506,108.6328 C225.5336,108.7038 225.6766,108.8088 225.6766,109.0218 C225.6766,109.2708 225.4986,109.3428 225.1086,109.3428 C224.5406,109.3428 221.3126,108.6678 221.0286,108.5958 C220.5666,108.4908 220.3546,108.3838 220.3546,108.1708 C220.3546,107.8868 220.7096,107.5318 220.7796,106.6448 C220.8866,105.6168 220.9576,104.2678 220.9576,103.0978 L220.9576,89.0498 C220.9576,87.9138 220.8516,87.1338 220.7796,86.6018 C220.6736,86.0698 220.6036,85.7858 220.6036,85.6438 C220.6036,85.3958 220.8166,85.3608 221.3486,85.3608 C222.0926,85.3608 224.5406,85.4658 225.4636,85.4658 C225.8176,85.5018 226.0306,85.5728 226.0306,85.7858 C226.0306,86.0698 225.8536,86.1408 225.3206,86.1758 L224.9316,86.2118 C224.0086,86.2818 223.0156,87.2398 222.9436,90.3978 L222.8376,94.8678 L237.3836,94.8678 C240.6476,94.8678 243.4496,94.8678 244.9756,94.6908 C245.9686,94.5838 246.7486,94.3708 246.8916,93.3068 C246.9616,92.8098 247.0326,92.0308 247.0326,91.4968 C247.0326,91.1078 247.1396,90.9298 247.3166,90.9298 C247.5656,90.9298 247.6716,91.2138 247.6716,91.6048 C247.6716,93.9458 247.5656,96.1808 247.5656,97.1738 C247.5656,97.9898 247.6716,100.2248 247.6716,101.6438 C247.6716,102.1048 247.5656,102.3528 247.3166,102.3528 C247.1396,102.3528 247.0326,102.2118 247.0326,101.7858 C247.0326,101.2528 246.9616,100.8268 246.8916,100.5088 C246.7486,99.7988 245.9686,99.5858 244.9406,99.4798 C243.4496,99.3018 240.6476,99.3018 237.3836,99.3018 L222.8376,99.3018 Z" id="Fill-398" fill="#041F5E"></path>
                <path d="M238.4831,71.5069 C236.5671,71.5069 235.7871,71.8609 234.7581,72.3229 C234.1901,72.5709 226.3851,77.3249 224.5411,78.5669 C223.2281,79.4539 222.3411,80.3409 221.9511,81.0149 C221.7031,81.4759 221.4901,82.0789 221.4901,82.5049 C221.4901,82.7879 221.4191,83.0359 221.1711,83.0359 C220.9581,83.0359 220.8511,82.7879 220.8511,82.3619 C220.8511,81.7239 220.9581,79.0639 220.9581,77.8929 C220.9581,77.1479 220.8511,75.6929 220.8511,74.0969 C220.8511,73.7409 220.9581,73.5649 221.1711,73.5649 C221.3831,73.5649 221.4191,73.8139 221.5601,74.3449 C221.6311,74.6639 221.9161,74.8419 222.1991,74.8419 C222.4831,74.8419 222.9091,74.6639 223.4061,74.4159 C224.4691,73.9189 233.0191,68.9519 234.0131,68.3849 C233.1621,68.0299 225.3571,63.5599 224.2561,63.0639 C223.4761,62.7079 222.8741,62.5669 222.4121,62.5669 C222.0571,62.5669 221.6671,62.7079 221.5251,63.3119 C221.4541,63.6309 221.3831,63.9499 221.1711,63.9499 C220.9221,63.9499 220.8511,63.7729 220.8511,63.3469 C220.8511,62.1769 220.9581,61.0409 220.9581,60.0129 C220.9581,59.2319 220.8511,56.8909 220.8511,56.2159 C220.8511,55.8259 220.9221,55.5769 221.1351,55.5769 C221.3831,55.5769 221.4901,55.8609 221.4901,56.2519 C221.4901,56.6069 221.6311,57.2799 221.9161,57.8139 C222.2701,58.5579 222.6961,58.9479 223.6541,59.7289 C225.0731,60.8999 233.4101,65.8659 234.9351,66.5049 C236.2121,67.0359 237.3121,67.0359 238.4831,67.0359 L241.3921,67.0359 C241.9601,67.0359 243.4501,67.0359 244.9401,66.9309 C245.9681,66.8599 246.7491,66.5399 246.8911,65.4759 C246.9621,64.9799 247.0331,64.1979 247.0331,63.7019 C247.0331,63.3119 247.1391,63.1339 247.3171,63.1339 C247.5651,63.1339 247.6711,63.4179 247.6711,63.8799 C247.6711,66.1139 247.5651,68.3489 247.5651,69.3079 C247.5651,70.1949 247.6711,72.4289 247.6711,73.7409 C247.6711,74.2379 247.6001,74.5229 247.3171,74.5229 C247.1391,74.5229 247.0331,74.3449 247.0331,73.9539 C247.0331,73.4579 246.9621,73.0319 246.8911,72.7129 C246.7491,72.0029 245.9681,71.6849 244.9401,71.6129 C243.4501,71.5069 241.9601,71.5069 241.3921,71.5069 L238.4831,71.5069 Z" id="Fill-399" fill="#041F5E"></path>
            </g>
        </g>
    </g>
</svg>