<?xml version="1.0" encoding="UTF-8"?>
<svg width="520px" height="147px" viewBox="0 0 520 147" version="1.1" xmlns="http://www.w3.org/2000/svg" xmlns:xlink="http://www.w3.org/1999/xlink">
    <!-- Generator: Sketch 59 (86127) - https://sketch.com -->
    <title>Group 2</title>
    <desc>Created with Sketch.</desc>
    <g id="Page-1" stroke="none" stroke-width="1" fill="none" fill-rule="evenodd">
        <g id="ihu-logo" transform="translate(-1045.000000, -566.000000)">
            <g id="Group-2" transform="translate(1045.112300, 566.525300)">
                <path d="M49.672,39.386 C53.408,28.28 59.812,18.433 68.061,10.667 C62.741,3.927 56.427,0 49.672,0 C42.917,0 36.602,3.927 31.282,10.667 C39.532,18.433 45.935,28.28 49.672,39.386" id="Fill-509" fill="#A62035"></path>
                <path d="M72.587,19.6043 C71.065,20.7603 69.619,22.0163 68.252,23.3503 C59.448,31.9873 53.924,44.2143 53.924,57.7093 L53.924,59.1893 L45.418,59.1893 C45.419,58.6613 45.419,58.1653 45.419,57.7093 C45.419,44.2143 39.895,31.9873 31.091,23.3503 C29.724,22.0163 28.278,20.7603 26.756,19.6043 C19.241,13.8573 9.983,10.4563 1.13686838e-13,10.4453 L1.13686838e-13,98.9123 C1.13686838e-13,120.0653 13.562,138.0843 32.069,144.0643 C36.293,145.4323 40.784,146.1763 45.419,146.1763 L45.419,145.8543 C45.419,139.5323 45.416,122.3493 45.415,104.5273 L53.916,104.5273 C53.914,117.1973 53.913,129.1343 53.913,135.4053 C53.913,140.7743 53.913,144.7313 53.924,145.8543 L53.924,146.1763 C58.56,146.1763 63.05,145.4323 67.274,144.0643 C85.781,138.0843 99.343,120.0653 99.343,98.9123 L99.343,10.4453 C89.36,10.4563 80.102,13.8573 72.587,19.6043" id="Fill-510" fill="#A62035"></path>
                <path d="M129.0099,57.8953 C129.0099,49.4263 129.0099,47.8653 128.8979,46.0813 C128.7859,44.1873 128.2289,43.2393 127.0029,42.9613 C126.3899,42.7943 125.6649,42.7383 124.9969,42.7383 C124.4389,42.7383 124.1059,42.6263 124.1059,42.1813 C124.1059,41.8473 124.5509,41.7353 125.4439,41.7353 C127.5609,41.7353 131.0709,41.9023 132.6869,41.9023 C134.0799,41.9023 137.3679,41.7353 139.4859,41.7353 C140.2099,41.7353 140.6559,41.8473 140.6559,42.1813 C140.6559,42.6263 140.3229,42.7383 139.7639,42.7383 C139.2059,42.7383 138.7609,42.7943 138.0919,42.9063 C136.5869,43.1843 136.1429,44.1323 136.0309,46.0813 C135.9189,47.8653 135.9189,49.4263 135.9189,57.8953 L135.9189,67.7033 C135.9189,73.1083 135.9189,77.5113 136.1429,79.9073 C136.3099,81.4113 136.6989,82.4153 138.3709,82.6373 C139.1519,82.7493 140.3769,82.8603 141.2129,82.8603 C141.8259,82.8603 142.1049,83.0283 142.1049,83.3073 C142.1049,83.6963 141.6579,83.8633 141.0449,83.8633 C137.3679,83.8633 133.8579,83.6963 132.3529,83.6963 C131.0709,83.6963 127.5609,83.8633 125.3309,83.8633 C124.6069,83.8633 124.2169,83.6963 124.2169,83.3073 C124.2169,83.0283 124.4389,82.8603 125.1089,82.8603 C125.9449,82.8603 126.6129,82.7493 127.1139,82.6373 C128.2289,82.4153 128.5639,81.4673 128.7299,79.8523 C129.0099,77.5113 129.0099,73.1083 129.0099,67.7033 L129.0099,57.8953 Z" id="Fill-511" fill="#00205F"></path>
                <path d="M166.0118,63.3006 C164.8408,62.4656 163.5598,62.0746 161.3858,61.9646 C160.3828,61.9076 159.8248,61.9076 158.9908,61.9076 C158.7678,61.9076 158.6558,62.0196 158.6558,62.2976 L158.6558,75.5046 C158.6558,79.1826 158.8228,80.1306 160.6068,80.8546 C162.1108,81.4676 163.3918,81.5226 164.6738,81.5226 C167.1818,81.5226 171.4168,80.1856 171.4168,74.3896 C171.4168,70.9346 170.2458,66.2546 166.0118,63.3006 L166.0118,63.3006 Z M158.6558,58.8426 C158.6558,59.2896 158.8228,59.4006 159.0458,59.4556 C159.5468,59.5676 160.3828,59.6226 161.6638,59.6226 C163.5028,59.6226 164.7298,59.4006 165.6768,58.5646 C167.1258,57.3936 167.9618,55.3876 167.9618,52.6576 C167.9618,48.9236 165.7878,44.0206 160.9958,44.0206 C160.2158,44.0206 159.7148,44.0206 159.1578,44.1326 C158.7678,44.2426 158.6558,44.4656 158.6558,45.0786 L158.6558,58.8426 Z M151.9688,57.8956 C151.9688,49.4256 151.9688,47.8646 151.8578,46.0816 C151.7458,44.1876 151.2998,43.2956 149.4608,42.9056 C149.0158,42.7946 148.0678,42.7386 147.2878,42.7386 C146.6748,42.7386 146.3398,42.6266 146.3398,42.2366 C146.3398,41.8466 146.7308,41.7356 147.5668,41.7356 C150.5198,41.7356 154.0308,41.9026 155.1448,41.9026 C157.8758,41.9026 160.0478,41.7356 161.9438,41.7356 C172.0308,41.7356 173.8128,47.1406 173.8128,50.0936 C173.8128,54.6636 171.1948,57.3936 168.1288,59.8456 C172.6988,61.4066 178.2708,65.3626 178.2708,71.8826 C178.2708,77.8446 173.6458,84.0306 163.3918,84.0306 C162.7238,84.0306 161.1078,83.9196 159.4918,83.8626 C157.8198,83.7516 156.1488,83.6966 155.3128,83.6966 C154.6988,83.6966 153.4738,83.6966 152.1358,83.7516 C150.8548,83.7516 149.4058,83.8626 148.2908,83.8626 C147.5668,83.8626 147.1768,83.6966 147.1768,83.3066 C147.1768,83.0286 147.3988,82.8606 148.0678,82.8606 C148.9048,82.8606 149.5728,82.7486 150.0738,82.6376 C151.1878,82.4156 151.4658,81.1896 151.6898,79.5716 C151.9688,77.2316 151.9688,72.8306 151.9688,67.7036 L151.9688,57.8956 Z" id="Fill-512" fill="#00205F"></path>
                <path d="M191.1447,76.2855 C191.2567,80.6315 191.9817,82.0805 193.0957,82.4705 C194.0427,82.8055 195.1017,82.8605 195.9927,82.8605 C196.6057,82.8605 196.9407,82.9725 196.9407,83.3065 C196.9407,83.7515 196.4387,83.8635 195.6597,83.8635 C192.0367,83.8635 189.8077,83.6965 188.7487,83.6965 C188.2467,83.6965 185.6277,83.8635 182.7307,83.8635 C182.0057,83.8635 181.5047,83.8075 181.5047,83.3065 C181.5047,82.9725 181.8377,82.8605 182.3967,82.8605 C183.1217,82.8605 184.1237,82.8055 184.9037,82.5825 C186.3527,82.1365 186.5757,80.5195 186.6307,75.6725 L187.1317,42.8495 C187.1317,41.7355 187.2997,40.9555 187.8567,40.9555 C188.4697,40.9555 188.9707,41.6805 189.9187,42.6825 C190.5867,43.4075 199.0577,52.3235 207.1937,60.4035 C210.9827,64.1935 218.5057,72.2175 219.4537,73.1085 L219.7317,73.1085 L219.1747,48.0885 C219.1197,44.6885 218.6177,43.6295 217.2797,43.0725 C216.4447,42.7385 215.1077,42.7385 214.3267,42.7385 C213.6587,42.7385 213.4347,42.5715 213.4347,42.2365 C213.4347,41.7905 214.0477,41.7355 214.8837,41.7355 C217.7827,41.7355 220.4567,41.9025 221.6267,41.9025 C222.2407,41.9025 224.3577,41.7355 227.0877,41.7355 C227.8127,41.7355 228.3707,41.7905 228.3707,42.2365 C228.3707,42.5715 228.0357,42.7385 227.3667,42.7385 C226.8097,42.7385 226.3637,42.7385 225.6957,42.9065 C224.1347,43.3505 223.6897,44.5215 223.6327,47.6415 L223.0197,82.8055 C223.0197,84.0315 222.7967,84.5325 222.2947,84.5325 C221.6827,84.5325 221.0137,83.9195 220.4017,83.3065 C216.8897,79.9635 209.7567,72.6635 203.9617,66.9235 C197.8877,60.9055 191.7017,54.1065 190.6987,53.0475 L190.5327,53.0475 L191.1447,76.2855 Z" id="Fill-513" fill="#00205F"></path>
                <path d="M284.9884,59.4559 C285.1564,59.4559 285.3234,59.3449 285.3234,59.0659 L285.3234,57.8949 C285.3234,49.4259 285.3234,47.8649 285.2124,46.0809 C285.0994,44.1869 284.6554,43.2959 282.8164,42.9059 C282.3704,42.7939 281.4224,42.7379 280.6424,42.7379 C280.0294,42.7379 279.6944,42.6259 279.6944,42.2369 C279.6944,41.8469 280.0844,41.7349 280.8654,41.7349 C283.8744,41.7349 287.3854,41.9019 288.8894,41.9019 C290.2274,41.9019 293.7374,41.7349 295.9114,41.7349 C296.6904,41.7349 297.0824,41.8469 297.0824,42.2369 C297.0824,42.6259 296.7474,42.7379 296.0784,42.7379 C295.6334,42.7379 295.1314,42.7939 294.4624,42.9059 C292.9584,43.1849 292.5114,44.1319 292.4014,46.0809 C292.2894,47.8649 292.2894,49.4259 292.2894,57.8949 L292.2894,67.7039 C292.2894,72.8309 292.2894,77.2319 292.5674,79.6289 C292.7344,81.1889 293.0694,82.4149 294.7414,82.6379 C295.5214,82.7489 296.7474,82.8609 297.5834,82.8609 C298.1964,82.8609 298.4744,83.0289 298.4744,83.3069 C298.4744,83.6969 298.0284,83.8629 297.3604,83.8629 C293.7374,83.8629 290.2274,83.6969 288.6674,83.6969 C287.3854,83.6969 283.8744,83.8629 281.7014,83.8629 C280.9214,83.8629 280.5304,83.6969 280.5304,83.3069 C280.5304,83.0289 280.7544,82.8609 281.4224,82.8609 C282.2584,82.8609 282.9274,82.7489 283.4284,82.6379 C284.5444,82.4149 284.8224,81.1889 285.0454,79.5719 C285.3234,77.2319 285.3234,72.8309 285.3234,67.7039 L285.3234,62.7989 C285.3234,62.5779 285.1564,62.4659 284.9884,62.4659 L263.7014,62.4659 C263.5344,62.4659 263.3664,62.5209 263.3664,62.7989 L263.3664,67.7039 C263.3664,72.8309 263.3664,77.2319 263.6464,79.6289 C263.8124,81.1889 264.1474,82.4149 265.8184,82.6379 C266.5994,82.7489 267.8254,82.8609 268.6624,82.8609 C269.2734,82.8609 269.5524,83.0289 269.5524,83.3069 C269.5524,83.6969 269.1064,83.8629 268.4384,83.8629 C264.8154,83.8629 261.3054,83.6969 259.7454,83.6969 C258.4634,83.6969 254.9524,83.8629 252.7234,83.8629 C251.9994,83.8629 251.6094,83.6969 251.6094,83.3069 C251.6094,83.0289 251.8314,82.8609 252.5014,82.8609 C253.3374,82.8609 254.0054,82.7489 254.5064,82.6379 C255.6214,82.4149 255.8994,81.1889 256.1224,79.5719 C256.4014,77.2319 256.4014,72.8309 256.4014,67.7039 L256.4014,57.8949 C256.4014,49.4259 256.4014,47.8649 256.2904,46.0809 C256.1784,44.1869 255.7324,43.2959 253.8934,42.9059 C253.4484,42.7939 252.5014,42.7379 251.7204,42.7379 C251.1074,42.7379 250.7734,42.6259 250.7734,42.2369 C250.7734,41.8469 251.1634,41.7349 251.9424,41.7349 C254.9524,41.7349 258.4634,41.9019 259.9674,41.9019 C261.3054,41.9019 264.8154,41.7349 266.9894,41.7349 C267.7694,41.7349 268.1594,41.8469 268.1594,42.2369 C268.1594,42.6259 267.8254,42.7379 267.1564,42.7379 C266.7114,42.7379 266.2104,42.7939 265.5404,42.9059 C264.0364,43.1849 263.5904,44.1319 263.4784,46.0809 C263.3664,47.8649 263.3664,49.4259 263.3664,57.8949 L263.3664,59.0659 C263.3664,59.3449 263.5344,59.4559 263.7014,59.4559 L284.9884,59.4559 Z" id="Fill-514" fill="#00205F"></path>
                <path d="M325.2804,66.867 C325.5584,66.867 325.6154,66.7 325.5584,66.534 L320.5434,52.825 C320.4874,52.601 320.4314,52.323 320.2644,52.323 C320.0974,52.323 319.9864,52.601 319.9294,52.825 L314.8034,66.477 C314.7474,66.7 314.8034,66.867 315.0274,66.867 L325.2804,66.867 Z M313.9114,69.654 C313.6334,69.654 313.5214,69.765 313.4104,70.1 L310.4014,77.735 C309.8434,79.127 309.5654,80.465 309.5654,81.133 C309.5654,82.136 310.0664,82.861 311.7944,82.861 L312.6304,82.861 C313.2984,82.861 313.4664,82.972 313.4664,83.307 C313.4664,83.752 313.1324,83.863 312.5184,83.863 C310.7364,83.863 308.3394,83.697 306.6114,83.697 C305.9994,83.697 302.9334,83.863 300.0364,83.863 C299.3124,83.863 298.9774,83.752 298.9774,83.307 C298.9774,82.972 299.2004,82.861 299.6454,82.861 C300.1484,82.861 300.9274,82.805 301.3734,82.749 C303.9364,82.415 304.9964,80.52 306.1104,77.735 L320.0974,43.184 C320.7654,41.569 321.1004,40.955 321.6574,40.955 C322.1604,40.955 322.4934,41.457 323.0514,42.738 C324.3884,45.803 333.3044,68.093 336.8714,76.564 C338.9884,81.579 340.6034,82.359 341.7744,82.638 C342.6114,82.805 343.4474,82.861 344.1154,82.861 C344.5614,82.861 344.8404,82.917 344.8404,83.307 C344.8404,83.752 344.3394,83.863 342.2764,83.863 C340.2704,83.863 336.2024,83.863 331.7434,83.752 C330.7414,83.697 330.0724,83.697 330.0724,83.307 C330.0724,82.972 330.2964,82.861 330.8524,82.805 C331.2424,82.694 331.6344,82.192 331.3534,81.523 L326.8954,70.044 C326.7844,69.765 326.6184,69.654 326.3384,69.654 L313.9114,69.654 Z" id="Fill-515" fill="#00205F"></path>
                <path d="M358.7726,67.7034 C358.7726,74.8364 358.7726,78.6814 359.9416,79.6834 C360.8896,80.5194 362.3386,80.9104 366.6846,80.9104 C369.6386,80.9104 371.8126,80.8544 373.2056,79.3504 C373.8746,78.6254 374.5426,77.0654 374.6546,76.0054 C374.7106,75.5044 374.8206,75.1704 375.2666,75.1704 C375.6576,75.1704 375.7126,75.4494 375.7126,76.1174 C375.7126,76.7304 375.3236,80.9104 374.8766,82.5254 C374.5426,83.7514 374.2636,84.0314 371.3666,84.0314 C367.3546,84.0314 364.4566,83.9194 361.9496,83.8634 C359.4406,83.7514 357.4346,83.6964 355.1496,83.6964 C354.5386,83.6964 353.3116,83.6964 351.9736,83.7514 C350.6916,83.7514 349.2426,83.8634 348.1276,83.8634 C347.4046,83.8634 347.0136,83.6964 347.0136,83.3074 C347.0136,83.0284 347.2366,82.8604 347.9066,82.8604 C348.7416,82.8604 349.4106,82.7484 349.9126,82.6374 C351.0266,82.4154 351.3046,81.1894 351.5276,79.5724 C351.8056,77.2314 351.8056,72.8304 351.8056,67.7034 L351.8056,57.8954 C351.8056,49.4264 351.8056,47.8654 351.6946,46.0814 C351.5846,44.1874 351.1376,43.2954 349.2986,42.9064 C348.8526,42.7944 348.1846,42.7384 347.4596,42.7384 C346.8466,42.7384 346.5116,42.6264 346.5116,42.2364 C346.5116,41.8474 346.9026,41.7354 347.7386,41.7354 C350.3586,41.7354 353.8686,41.9024 355.3726,41.9024 C356.7096,41.9024 360.7786,41.7354 362.9526,41.7354 C363.7316,41.7354 364.1216,41.8474 364.1216,42.2364 C364.1216,42.6264 363.7886,42.7384 363.1186,42.7384 C362.5056,42.7384 361.6146,42.7944 360.9466,42.9064 C359.4406,43.1844 358.9956,44.1324 358.8836,46.0814 C358.7726,47.8654 358.7726,49.4264 358.7726,57.8954 L358.7726,67.7034 Z" id="Fill-516" fill="#00205F"></path>
                <path d="M391.3732,64.0252 C391.3732,69.9322 391.4292,74.2232 391.4842,75.2822 C391.5402,76.6752 391.6512,78.9042 392.0982,79.5172 C392.8222,80.5762 394.9952,81.7462 399.3972,81.7462 C405.0812,81.7462 408.8712,80.6312 412.2142,77.7342 C415.7802,74.6692 416.8942,69.5992 416.8942,63.8582 C416.8942,56.7802 413.9412,52.2112 411.5462,49.9272 C406.4192,45.0232 400.0662,44.3542 395.7202,44.3542 C394.6042,44.3542 392.5432,44.5222 392.0982,44.7452 C391.5972,44.9672 391.4292,45.2462 391.4292,45.8592 C391.3732,47.7542 391.3732,52.6012 391.3732,57.0042 L391.3732,64.0252 Z M384.4072,57.8952 C384.4072,49.4262 384.4072,47.8652 384.2952,46.0812 C384.1852,44.1872 383.7382,43.2962 381.8992,42.9062 C381.4532,42.7942 380.5072,42.7382 379.7262,42.7382 C379.1132,42.7382 378.7792,42.6262 378.7792,42.2362 C378.7792,41.8472 379.1692,41.7352 380.0062,41.7352 C382.9592,41.7352 386.4692,41.9022 388.0292,41.9022 C389.7572,41.9022 393.2682,41.7352 396.6122,41.7352 C403.5772,41.7352 412.8842,41.7352 418.9572,48.0882 C421.7442,50.9852 424.3622,55.6112 424.3622,62.2422 C424.3622,69.2642 421.4092,74.6132 418.2892,77.7902 C415.7262,80.4082 409.9302,84.3642 399.6202,84.3642 C397.6142,84.3642 395.3292,84.1982 393.2122,84.0312 C391.0952,83.8632 389.1442,83.6962 387.7502,83.6962 C387.1392,83.6962 385.9122,83.6962 384.5752,83.7522 C383.2922,83.7522 381.8442,83.8632 380.7282,83.8632 C380.0062,83.8632 379.6142,83.6962 379.6142,83.3072 C379.6142,83.0282 379.8382,82.8602 380.5072,82.8602 C381.3422,82.8602 382.0122,82.7492 382.5132,82.6372 C383.6272,82.4152 383.9052,81.1892 384.1292,79.5722 C384.4072,77.2322 384.4072,72.8302 384.4072,67.7032 L384.4072,57.8952 Z" id="Fill-517" fill="#00205F"></path>
                <path d="M433.0577,57.8953 C433.0577,49.4263 433.0577,47.8653 432.9467,46.0813 C432.8337,44.1873 432.3877,43.2953 430.5487,42.9063 C430.1037,42.7943 429.1567,42.7383 428.3767,42.7383 C427.7637,42.7383 427.4287,42.6263 427.4287,42.2363 C427.4287,41.8473 427.8187,41.7353 428.6557,41.7353 C431.6087,41.7353 435.1197,41.9023 436.7907,41.9023 C438.1277,41.9023 441.6397,41.7353 443.6457,41.7353 C444.4817,41.7353 444.8707,41.8473 444.8707,42.2363 C444.8707,42.6263 444.5367,42.7383 443.9797,42.7383 C443.3677,42.7383 443.0327,42.7943 442.3647,42.9063 C440.8587,43.1843 440.4127,44.1323 440.3017,46.0813 C440.1907,47.8653 440.1907,49.4263 440.1907,57.8953 L440.1907,65.6973 C440.1907,73.7783 441.8067,77.1763 444.5367,79.4053 C447.0447,81.4673 449.6077,81.6903 451.5027,81.6903 C453.9547,81.6903 456.9627,80.9103 459.1927,78.6813 C462.2567,75.6163 462.4247,70.6013 462.4247,64.8613 L462.4247,57.8953 C462.4247,49.4263 462.4247,47.8653 462.3137,46.0813 C462.2027,44.1873 461.7557,43.2953 459.9167,42.9063 C459.4717,42.7943 458.5247,42.7383 457.9117,42.7383 C457.2977,42.7383 456.9627,42.6263 456.9627,42.2363 C456.9627,41.8473 457.3537,41.7353 458.1337,41.7353 C460.9767,41.7353 464.4867,41.9023 464.5427,41.9023 C465.2107,41.9023 468.7217,41.7353 470.8957,41.7353 C471.6757,41.7353 472.0657,41.8473 472.0657,42.2363 C472.0657,42.6263 471.7307,42.7383 471.0627,42.7383 C470.4497,42.7383 470.1157,42.7943 469.4467,42.9063 C467.9417,43.1843 467.4957,44.1323 467.3847,46.0813 C467.2727,47.8653 467.2727,49.4263 467.2727,57.8953 L467.2727,63.8583 C467.2727,70.0433 466.6607,76.6193 461.9787,80.6313 C458.0227,84.0313 454.0097,84.6443 450.3887,84.6443 C447.4347,84.6443 442.0847,84.4763 438.0167,80.7983 C435.1747,78.2363 433.0577,74.1113 433.0577,66.0323 L433.0577,57.8953 Z" id="Fill-518" fill="#00205F"></path>
                <path d="M482.7111,76.2855 C482.8221,80.6315 483.5461,82.0805 484.6611,82.4705 C485.6071,82.8055 486.6671,82.8605 487.5591,82.8605 C488.1721,82.8605 488.5061,82.9725 488.5061,83.3065 C488.5061,83.7515 488.0051,83.8635 487.2241,83.8635 C483.6031,83.8635 481.3731,83.6965 480.3151,83.6965 C479.8131,83.6965 477.1931,83.8635 474.2961,83.8635 C473.5711,83.8635 473.0691,83.8075 473.0691,83.3065 C473.0691,82.9725 473.4041,82.8605 473.9621,82.8605 C474.6861,82.8605 475.6901,82.8055 476.4691,82.5825 C477.9181,82.1365 478.1421,80.5195 478.1961,75.6725 L478.6981,42.8495 C478.6981,41.7355 478.8651,40.9555 479.4231,40.9555 C480.0361,40.9555 480.5371,41.6805 481.4841,42.6825 C482.1531,43.4075 490.6231,52.3235 498.7591,60.4035 C502.5491,64.1935 510.0711,72.2175 511.0201,73.1085 L511.2981,73.1085 L510.7411,48.0885 C510.6851,44.6885 510.1841,43.6295 508.8461,43.0725 C508.0101,42.7385 506.6731,42.7385 505.8931,42.7385 C505.2241,42.7385 505.0011,42.5715 505.0011,42.2365 C505.0011,41.7905 505.6141,41.7355 506.4501,41.7355 C509.3471,41.7355 512.0231,41.9025 513.1931,41.9025 C513.8061,41.9025 515.9241,41.7355 518.6531,41.7355 C519.3781,41.7355 519.9351,41.7905 519.9351,42.2365 C519.9351,42.5715 519.6021,42.7385 518.9321,42.7385 C518.3751,42.7385 517.9291,42.7385 517.2611,42.9065 C515.7001,43.3505 515.2541,44.5215 515.1991,47.6415 L514.5861,82.8055 C514.5861,84.0315 514.3621,84.5325 513.8611,84.5325 C513.2481,84.5325 512.5801,83.9195 511.9671,83.3065 C508.4561,79.9635 501.3231,72.6635 495.5271,66.9235 C489.4541,60.9055 483.2681,54.1065 482.2651,53.0475 L482.0981,53.0475 L482.7111,76.2855 Z" id="Fill-519" fill="#00205F"></path>
                <path d="M127.0714,104.2151 C127.0714,99.6921 127.0714,98.8601 127.0104,97.9071 C126.9524,96.8961 126.7144,96.4211 125.7324,96.2111 C125.4944,96.1521 124.9884,96.1221 124.5714,96.1221 C124.2444,96.1221 124.0654,96.0631 124.0654,95.8551 C124.0654,95.6461 124.2744,95.5871 124.7204,95.5871 C126.2984,95.5871 128.1724,95.6761 129.0644,95.6761 C129.7784,95.6761 131.6534,95.5871 132.7234,95.5871 C133.1704,95.5871 133.3784,95.6461 133.3784,95.8551 C133.3784,96.0631 133.2004,96.1221 132.9034,96.1221 C132.5744,96.1221 132.3964,96.1521 132.0394,96.2111 C131.2354,96.3601 130.9994,96.8671 130.9384,97.9071 C130.8804,98.8601 130.8804,99.6921 130.8804,104.2151 L130.8804,108.3811 C130.8804,112.6941 131.7424,114.5091 133.2004,115.6991 C134.5394,116.8011 135.9084,116.9201 136.9204,116.9201 C138.2284,116.9201 139.8354,116.5031 141.0254,115.3131 C142.6614,113.6771 142.7514,110.9981 142.7514,107.9351 L142.7514,104.2151 C142.7514,99.6921 142.7514,98.8601 142.6914,97.9071 C142.6324,96.8961 142.3934,96.4211 141.4124,96.2111 C141.1744,96.1521 140.6684,96.1221 140.3414,96.1221 C140.0134,96.1221 139.8354,96.0631 139.8354,95.8551 C139.8354,95.6461 140.0444,95.5871 140.4604,95.5871 C141.9774,95.5871 143.8514,95.6761 143.8824,95.6761 C144.2384,95.6761 146.1134,95.5871 147.2734,95.5871 C147.6904,95.5871 147.8984,95.6461 147.8984,95.8551 C147.8984,96.0631 147.7194,96.1221 147.3624,96.1221 C147.0354,96.1221 146.8564,96.1521 146.5004,96.2111 C145.6964,96.3601 145.4584,96.8671 145.3984,97.9071 C145.3404,98.8601 145.3404,99.6921 145.3404,104.2151 L145.3404,107.3991 C145.3404,110.7011 145.0114,114.2131 142.5124,116.3551 C140.4004,118.1691 138.2594,118.4961 136.3244,118.4961 C134.7474,118.4961 131.8914,118.4071 129.7184,116.4441 C128.2024,115.0751 127.0714,112.8741 127.0714,108.5591 L127.0714,104.2151 Z" id="Fill-520" fill="#00205F"></path>
                <path d="M176.4992,114.0335 C176.5582,116.3555 176.9452,117.1285 177.5412,117.3365 C178.0462,117.5145 178.6112,117.5445 179.0882,117.5445 C179.4152,117.5445 179.5932,117.6035 179.5932,117.7835 C179.5932,118.0215 179.3262,118.0795 178.9082,118.0795 C176.9762,118.0795 175.7842,117.9915 175.2202,117.9915 C174.9522,117.9915 173.5542,118.0795 172.0062,118.0795 C171.6192,118.0795 171.3522,118.0505 171.3522,117.7835 C171.3522,117.6035 171.5302,117.5445 171.8282,117.5445 C172.2152,117.5445 172.7502,117.5145 173.1672,117.3955 C173.9402,117.1575 174.0602,116.2945 174.0892,113.7065 L174.3562,96.1825 C174.3562,95.5865 174.4452,95.1705 174.7432,95.1705 C175.0712,95.1705 175.3382,95.5565 175.8452,96.0925 C176.2012,96.4795 180.7242,101.2405 185.0672,105.5545 C187.0912,107.5775 191.1072,111.8625 191.6132,112.3375 L191.7632,112.3375 L191.4652,98.9795 C191.4352,97.1635 191.1672,96.5985 190.4532,96.3015 C190.0072,96.1225 189.2932,96.1225 188.8762,96.1225 C188.5202,96.1225 188.4002,96.0335 188.4002,95.8555 C188.4002,95.6165 188.7282,95.5865 189.1742,95.5865 C190.7212,95.5865 192.1492,95.6765 192.7742,95.6765 C193.1022,95.6765 194.2322,95.5865 195.6892,95.5865 C196.0762,95.5865 196.3742,95.6165 196.3742,95.8555 C196.3742,96.0335 196.1952,96.1225 195.8382,96.1225 C195.5412,96.1225 195.3032,96.1225 194.9452,96.2115 C194.1132,96.4495 193.8752,97.0755 193.8452,98.7415 L193.5182,117.5145 C193.5182,118.1695 193.3982,118.4375 193.1312,118.4375 C192.8042,118.4375 192.4462,118.1105 192.1192,117.7835 C190.2452,115.9975 186.4372,112.1005 183.3432,109.0355 C180.1002,105.8225 176.7962,102.1925 176.2612,101.6265 L176.1722,101.6265 L176.4992,114.0335 Z" id="Fill-521" fill="#00205F"></path>
                <path d="M224.1417,104.2151 C224.1417,99.6921 224.1417,98.8601 224.0827,97.9071 C224.0227,96.8961 223.7257,96.3901 223.0717,96.2411 C222.7447,96.1521 222.3567,96.1221 221.9987,96.1221 C221.7027,96.1221 221.5247,96.0631 221.5247,95.8251 C221.5247,95.6461 221.7617,95.5871 222.2377,95.5871 C223.3687,95.5871 225.2427,95.6761 226.1067,95.6761 C226.8497,95.6761 228.6047,95.5871 229.7357,95.5871 C230.1227,95.5871 230.3617,95.6461 230.3617,95.8251 C230.3617,96.0631 230.1817,96.1221 229.8847,96.1221 C229.5867,96.1221 229.3497,96.1521 228.9927,96.2111 C228.1887,96.3601 227.9507,96.8671 227.8917,97.9071 C227.8307,98.8601 227.8307,99.6921 227.8307,104.2151 L227.8307,109.4511 C227.8307,112.3371 227.8307,114.6881 227.9507,115.9671 C228.0387,116.7711 228.2487,117.3061 229.1417,117.4251 C229.5577,117.4861 230.2117,117.5451 230.6587,117.5451 C230.9857,117.5451 231.1347,117.6331 231.1347,117.7831 C231.1347,117.9911 230.8967,118.0801 230.5697,118.0801 C228.6047,118.0801 226.7307,117.9911 225.9267,117.9911 C225.2427,117.9911 223.3687,118.0801 222.1787,118.0801 C221.7907,118.0801 221.5827,117.9911 221.5827,117.7831 C221.5827,117.6331 221.7027,117.5451 222.0597,117.5451 C222.5057,117.5451 222.8637,117.4861 223.1297,117.4251 C223.7257,117.3061 223.9037,116.8011 223.9947,115.9381 C224.1417,114.6881 224.1417,112.3371 224.1417,109.4511 L224.1417,104.2151 Z" id="Fill-522" fill="#00205F"></path>
                <path d="M255.9845,98.5027 C255.2995,96.8667 254.7955,96.5397 253.7225,96.2407 C253.2765,96.1227 252.8015,96.1227 252.5635,96.1227 C252.2955,96.1227 252.2065,96.0327 252.2065,95.8557 C252.2065,95.6167 252.5335,95.5867 252.9795,95.5867 C254.5565,95.5867 256.2535,95.6757 257.2935,95.6757 C258.0385,95.6757 259.4655,95.5867 260.9535,95.5867 C261.3105,95.5867 261.6375,95.6457 261.6375,95.8557 C261.6375,96.0637 261.4595,96.1227 261.1915,96.1227 C260.7145,96.1227 260.2685,96.1517 260.0315,96.3307 C259.8225,96.4797 259.7335,96.6877 259.7335,96.9557 C259.7335,97.3417 260.0025,98.1757 260.4185,99.2457 L265.5355,112.7547 L265.6545,112.7547 C266.9345,109.4817 270.8015,99.9007 271.5165,97.9377 C271.6645,97.5497 271.7835,97.1037 271.7835,96.8367 C271.7835,96.5987 271.6645,96.3597 271.3975,96.2717 C271.0405,96.1517 270.5935,96.1227 270.2065,96.1227 C269.9395,96.1227 269.7015,96.0917 269.7015,95.8837 C269.7015,95.6457 269.9695,95.5867 270.5335,95.5867 C272.0215,95.5867 273.2715,95.6757 273.6585,95.6757 C274.1645,95.6757 275.5625,95.5867 276.4555,95.5867 C276.8415,95.5867 277.0805,95.6457 277.0805,95.8557 C277.0805,96.0637 276.9015,96.1227 276.6035,96.1227 C276.3055,96.1227 275.6815,96.1227 275.1455,96.4797 C274.7585,96.7477 274.3125,97.2527 273.5095,99.1567 C272.3485,101.9537 271.5455,103.5607 269.9395,107.2197 C268.0355,111.5637 266.6355,114.8067 265.9815,116.2947 C265.2085,118.0217 265.0305,118.4967 264.6125,118.4967 C264.2265,118.4967 264.0475,118.0797 263.4825,116.6827 L255.9845,98.5027 Z" id="Fill-523" fill="#00205F"></path>
                <path d="M301.3956,104.2151 C301.3956,99.6921 301.3956,98.8601 301.3366,97.9071 C301.2776,96.8961 301.0396,96.4211 300.0566,96.2111 C299.8196,96.1521 299.3136,96.1221 298.8976,96.1221 C298.5706,96.1221 298.3906,96.0631 298.3906,95.8551 C298.3906,95.6461 298.5986,95.5871 299.0446,95.5871 C299.8486,95.5871 300.7116,95.6171 301.4566,95.6171 C302.2296,95.6461 302.9146,95.6761 303.3306,95.6761 C304.2826,95.6761 310.2036,95.6761 310.7686,95.6461 C311.3336,95.5871 311.8086,95.5281 312.0466,95.4671 C312.1966,95.4381 312.3746,95.3481 312.5236,95.3481 C312.6726,95.3481 312.7036,95.4671 312.7036,95.6171 C312.7036,95.8251 312.5536,96.1821 312.4646,97.5501 C312.4346,97.8481 312.3746,99.1571 312.3156,99.5141 C312.2856,99.6631 312.2266,99.8411 312.0186,99.8411 C311.8086,99.8411 311.7496,99.6921 311.7496,99.4251 C311.7496,99.2171 311.7196,98.7111 311.5726,98.3531 C311.3626,97.8181 311.0656,97.4611 309.5786,97.2831 C309.0726,97.2231 305.9486,97.1641 305.3536,97.1641 C305.2046,97.1641 305.1446,97.2531 305.1446,97.4611 L305.1446,104.9881 C305.1446,105.1971 305.1746,105.3161 305.3536,105.3161 C306.0076,105.3161 309.4296,105.3161 310.1146,105.2571 C310.8276,105.1971 311.2736,105.1081 311.5416,104.8111 C311.7496,104.5721 311.8696,104.4231 312.0186,104.4231 C312.1376,104.4231 312.2266,104.4841 312.2266,104.6611 C312.2266,104.8401 312.1076,105.3161 311.9886,106.8341 C311.9586,107.4281 311.8696,108.6191 311.8696,108.8271 C311.8696,109.0651 311.8696,109.3931 311.6006,109.3931 C311.3926,109.3931 311.3336,109.2741 311.3336,109.1241 C311.3036,108.8271 311.3036,108.4401 311.2146,108.0541 C311.0656,107.4581 310.6496,107.0121 309.5486,106.8931 C308.9836,106.8341 306.0376,106.8041 305.3236,106.8041 C305.1746,106.8041 305.1446,106.9231 305.1446,107.1011 L305.1446,109.4511 C305.1446,110.4631 305.1156,113.2011 305.1446,114.0631 C305.2046,116.1171 305.6806,116.5631 308.7146,116.5631 C309.4886,116.5631 310.7386,116.5631 311.5116,116.2061 C312.2856,115.8481 312.6426,115.2241 312.8506,114.0051 C312.9116,113.6771 312.9696,113.5581 313.1776,113.5581 C313.4166,113.5581 313.4166,113.7951 313.4166,114.0931 C313.4166,114.7781 313.1776,116.8011 313.0306,117.3951 C312.8206,118.1691 312.5536,118.1691 311.4226,118.1691 C309.1916,118.1691 307.5546,118.1101 306.2756,118.0801 C304.9966,118.0211 304.0746,117.9911 303.1806,117.9911 C302.8536,117.9911 302.1996,117.9911 301.4856,118.0211 C300.8016,118.0211 300.0276,118.0801 299.4326,118.0801 C299.0446,118.0801 298.8366,117.9911 298.8366,117.7831 C298.8366,117.6331 298.9566,117.5451 299.3136,117.5451 C299.7596,117.5451 300.1176,117.4861 300.3836,117.4251 C300.9796,117.3061 301.1286,116.6521 301.2476,115.7901 C301.3956,114.5401 301.3956,112.1891 301.3956,109.4511 L301.3956,104.2151 Z" id="Fill-524" fill="#00205F"></path>
                <path d="M344.8429,106.5657 C344.8429,106.8927 344.9029,107.0117 345.1109,107.1007 C345.7359,107.3097 346.6279,107.3987 347.3719,107.3987 C348.5619,107.3987 348.9479,107.2807 349.4849,106.8927 C350.3769,106.2387 351.2389,104.8697 351.2389,102.4297 C351.2389,98.2057 348.4429,96.9857 346.6879,96.9857 C345.9439,96.9857 345.4079,97.0147 345.1109,97.1037 C344.9029,97.1637 344.8429,97.2827 344.8429,97.5217 L344.8429,106.5657 Z M341.3309,104.2147 C341.3309,99.6917 341.3309,98.8597 341.2729,97.9067 C341.2119,96.8957 340.9749,96.4207 339.9919,96.2117 C339.7549,96.1517 339.2489,96.1227 338.8329,96.1227 C338.5059,96.1227 338.3259,96.0637 338.3259,95.8557 C338.3259,95.6457 338.5339,95.5867 338.9809,95.5867 C340.5579,95.5867 342.4329,95.6757 343.0579,95.6757 C344.0699,95.6757 346.3299,95.5867 347.2529,95.5867 C349.1269,95.5867 351.1199,95.7647 352.7279,96.8667 C353.5599,97.4317 354.7509,98.9487 354.7509,100.9417 C354.7509,103.1447 353.8279,105.1667 350.8229,107.6077 C353.4709,110.9397 355.5249,113.5867 357.2799,115.4327 C358.9459,117.1577 360.1649,117.3667 360.6119,117.4557 C360.9389,117.5147 361.2069,117.5447 361.4459,117.5447 C361.6829,117.5447 361.8019,117.6337 361.8019,117.7827 C361.8019,118.0217 361.5939,118.0797 361.2369,118.0797 L358.4099,118.0797 C356.7439,118.0797 355.9989,117.9317 355.2259,117.5147 C353.9469,116.8307 352.8169,115.4327 351.1509,113.1407 C349.9599,111.5047 348.5919,109.4817 348.2039,109.0357 C348.0559,108.8577 347.8769,108.8277 347.6689,108.8277 L345.0799,108.7667 C344.9319,108.7667 344.8429,108.8277 344.8429,109.0047 L344.8429,109.4227 C344.8429,112.1897 344.8429,114.5397 344.9909,115.7897 C345.0799,116.6517 345.2589,117.3067 346.1519,117.4257 C346.5979,117.4857 347.2529,117.5447 347.6099,117.5447 C347.8479,117.5447 347.9669,117.6337 347.9669,117.7827 C347.9669,117.9907 347.7579,118.0797 347.3719,118.0797 C345.6459,118.0797 343.4449,117.9907 342.9979,117.9907 C342.4329,117.9907 340.5579,118.0797 339.3679,118.0797 C338.9809,118.0797 338.7729,117.9907 338.7729,117.7827 C338.7729,117.6337 338.8919,117.5447 339.2489,117.5447 C339.6959,117.5447 340.0529,117.4857 340.3199,117.4257 C340.9149,117.3067 341.0649,116.6517 341.1839,115.7897 C341.3309,114.5397 341.3309,112.1897 341.3309,109.4517 L341.3309,104.2147 Z" id="Fill-525" fill="#00205F"></path>
                <path d="M382.8439,117.723 C382.3669,117.515 382.2789,117.367 382.2789,116.711 C382.2789,115.075 382.3979,113.29 382.4279,112.814 C382.4579,112.368 382.5469,112.04 382.7849,112.04 C383.0519,112.04 383.0819,112.308 383.0819,112.547 C383.0819,112.933 383.2009,113.558 383.3509,114.063 C384.0049,116.265 385.7599,117.068 387.6049,117.068 C390.2819,117.068 391.5909,115.253 391.5909,113.678 C391.5909,112.22 391.1449,110.85 388.6759,108.916 L387.3069,107.846 C384.0329,105.286 382.9049,103.204 382.9049,100.794 C382.9049,97.521 385.6409,95.171 389.7769,95.171 C391.7099,95.171 392.9599,95.468 393.7339,95.676 C394.0009,95.736 394.1499,95.825 394.1499,96.033 C394.1499,96.421 394.0309,97.283 394.0309,99.603 C394.0309,100.258 393.9419,100.496 393.7029,100.496 C393.4949,100.496 393.4069,100.318 393.4069,99.961 C393.4069,99.692 393.2569,98.771 392.6329,97.997 C392.1869,97.432 391.3229,96.539 389.3899,96.539 C387.1879,96.539 385.8489,97.818 385.8489,99.603 C385.8489,100.973 386.5329,102.014 389.0029,103.888 L389.8359,104.513 C393.4359,107.22 394.7149,109.274 394.7149,112.1 C394.7149,113.826 394.0609,115.879 391.9179,117.277 C390.4309,118.229 388.7649,118.496 387.1879,118.496 C385.4629,118.496 384.1239,118.288 382.8439,117.723" id="Fill-526" fill="#00205F"></path>
                <path d="M422.9269,104.2151 C422.9269,99.6921 422.9269,98.8601 422.8679,97.9071 C422.8079,96.8961 422.5109,96.3901 421.8569,96.2411 C421.5299,96.1521 421.1419,96.1221 420.7859,96.1221 C420.4879,96.1221 420.3099,96.0631 420.3099,95.8251 C420.3099,95.6461 420.5479,95.5871 421.0239,95.5871 C422.1539,95.5871 424.0299,95.6761 424.8919,95.6761 C425.6349,95.6761 427.3919,95.5871 428.5219,95.5871 C428.9079,95.5871 429.1469,95.6461 429.1469,95.8251 C429.1469,96.0631 428.9679,96.1221 428.6699,96.1221 C428.3729,96.1221 428.1349,96.1521 427.7779,96.2111 C426.9739,96.3601 426.7359,96.8671 426.6769,97.9071 C426.6159,98.8601 426.6159,99.6921 426.6159,104.2151 L426.6159,109.4511 C426.6159,112.3371 426.6159,114.6881 426.7359,115.9671 C426.8259,116.7711 427.0339,117.3061 427.9269,117.4251 C428.3429,117.4861 428.9969,117.5451 429.4439,117.5451 C429.7709,117.5451 429.9199,117.6331 429.9199,117.7831 C429.9199,117.9911 429.6819,118.0801 429.3549,118.0801 C427.3919,118.0801 425.5159,117.9911 424.7139,117.9911 C424.0299,117.9911 422.1539,118.0801 420.9639,118.0801 C420.5769,118.0801 420.3679,117.9911 420.3679,117.7831 C420.3679,117.6331 420.4879,117.5451 420.8449,117.5451 C421.2909,117.5451 421.6489,117.4861 421.9149,117.4251 C422.5109,117.3061 422.6909,116.8011 422.7799,115.9381 C422.9269,114.6881 422.9269,112.3371 422.9269,109.4511 L422.9269,104.2151 Z" id="Fill-527" fill="#00205F"></path>
                <path d="M461.465,97.2527 L457.032,97.3717 C455.306,97.4317 454.592,97.5797 454.146,98.2347 C453.849,98.6807 453.699,99.0377 453.64,99.2757 C453.581,99.5147 453.491,99.6337 453.313,99.6337 C453.105,99.6337 453.045,99.4837 453.045,99.1567 C453.045,98.6807 453.611,95.9747 453.67,95.7357 C453.759,95.3487 453.849,95.1707 454.028,95.1707 C454.265,95.1707 454.563,95.4677 455.306,95.5277 C456.169,95.6167 457.3,95.6757 458.282,95.6757 L470.064,95.6757 C471.016,95.6757 471.671,95.5867 472.117,95.5277 C472.564,95.4377 472.801,95.3787 472.92,95.3787 C473.128,95.3787 473.158,95.5567 473.158,96.0027 C473.158,96.6287 473.069,98.6807 473.069,99.4547 C473.039,99.7527 472.98,99.9307 472.801,99.9307 C472.564,99.9307 472.504,99.7827 472.474,99.3357 L472.444,99.0077 C472.385,98.2347 471.581,97.4017 468.933,97.3417 L465.185,97.2527 L465.185,109.4517 C465.185,112.1897 465.185,114.5397 465.334,115.8187 C465.423,116.6517 465.601,117.3067 466.493,117.4257 C466.909,117.4857 467.566,117.5447 468.012,117.5447 C468.339,117.5447 468.486,117.6337 468.486,117.7827 C468.486,117.9907 468.249,118.0797 467.921,118.0797 C465.958,118.0797 464.084,117.9907 463.25,117.9907 C462.566,117.9907 460.692,118.0797 459.502,118.0797 C459.114,118.0797 458.906,117.9907 458.906,117.7827 C458.906,117.6337 459.026,117.5447 459.383,117.5447 C459.829,117.5447 460.187,117.4857 460.453,117.4257 C461.049,117.3067 461.227,116.6517 461.316,115.7897 C461.465,114.5397 461.465,112.1897 461.465,109.4517 L461.465,97.2527 Z" id="Fill-528" fill="#00205F"></path>
                <path d="M503.2462,110.3743 C503.2462,108.7673 502.9472,108.1123 502.5612,107.2503 C502.3532,106.7733 498.3652,100.2283 497.3252,98.6813 C496.5802,97.5803 495.8372,96.8363 495.2712,96.5093 C494.8852,96.3013 494.3792,96.1223 494.0212,96.1223 C493.7842,96.1223 493.5762,96.0633 493.5762,95.8553 C493.5762,95.6763 493.7842,95.5863 494.1412,95.5863 C494.6772,95.5863 496.9082,95.6763 497.8912,95.6763 C498.5152,95.6763 499.7342,95.5863 501.0732,95.5863 C501.3702,95.5863 501.5192,95.6763 501.5192,95.8553 C501.5192,96.0333 501.3112,96.0633 500.8652,96.1823 C500.5972,96.2413 500.4492,96.4793 500.4492,96.7173 C500.4492,96.9563 500.5972,97.3133 500.8052,97.7293 C501.2232,98.6223 505.3892,105.7923 505.8632,106.6243 C506.1622,105.9113 509.9102,99.3653 510.3262,98.4433 C510.6242,97.7883 510.7432,97.2833 510.7432,96.8953 C510.7432,96.5983 510.6242,96.2713 510.1182,96.1523 C509.8502,96.0923 509.5832,96.0333 509.5832,95.8553 C509.5832,95.6453 509.7322,95.5863 510.0892,95.5863 C511.0702,95.5863 512.0222,95.6763 512.8862,95.6763 C513.5402,95.6763 515.5042,95.5863 516.0682,95.5863 C516.3962,95.5863 516.6042,95.6453 516.6042,95.8253 C516.6042,96.0333 516.3672,96.1223 516.0392,96.1223 C515.7412,96.1223 515.1772,96.2413 514.7302,96.4793 C514.1052,96.7763 513.7782,97.1333 513.1242,97.9373 C512.1422,99.1263 507.9752,106.1193 507.4402,107.3993 C506.9942,108.4703 506.9942,109.3933 506.9942,110.3743 L506.9942,112.8133 C506.9942,113.2903 506.9942,114.5403 507.0832,115.7903 C507.1432,116.6523 507.4102,117.3063 508.3042,117.4253 C508.7212,117.4853 509.3752,117.5443 509.7912,117.5443 C510.1182,117.5443 510.2672,117.6333 510.2672,117.7833 C510.2672,117.9913 510.0292,118.0803 509.6422,118.0803 C507.7672,118.0803 505.8932,117.9913 505.0902,117.9913 C504.3472,117.9913 502.4732,118.0803 501.3702,118.0803 C500.9542,118.0803 500.7162,118.0213 500.7162,117.7833 C500.7162,117.6333 500.8652,117.5443 501.1922,117.5443 C501.6082,117.5443 501.9662,117.4853 502.2342,117.4253 C502.8282,117.3063 503.0972,116.6523 503.1552,115.7903 C503.2462,114.5403 503.2462,113.2903 503.2462,112.8133 L503.2462,110.3743 Z" id="Fill-529" fill="#00205F"></path>
            </g>
        </g>
    </g>
</svg>